<mxfile host="app.diagrams.net" modified="2023-03-20T02:19:17.324Z" agent="5.0 (Windows NT 10.0; Win64; x64) AppleWebKit/537.36 (KHTML, like Gecko) Chrome/111.0.0.0 Safari/537.36" etag="hCTNls6NBdzTTJAgGCMG" version="21.0.8" type="github">
  <diagram name="Page-1" id="UM5fExKAqU_IaTHObPdK">
    <mxGraphModel dx="2045" dy="1801" grid="1" gridSize="10" guides="1" tooltips="1" connect="1" arrows="1" fold="1" page="1" pageScale="1" pageWidth="850" pageHeight="1100" math="0" shadow="0">
      <root>
        <mxCell id="0" />
        <mxCell id="1" parent="0" />
        <mxCell id="RJwmLbTxzPgo3nEWYFK--1" value="" style="whiteSpace=wrap;html=1;aspect=fixed;fillColor=none;dashed=1;dashPattern=12 12;strokeWidth=2;rounded=1;movable=1;resizable=1;rotatable=1;deletable=1;editable=1;locked=0;connectable=1;fontColor=#ffffff;strokeColor=#005700;" vertex="1" parent="1">
          <mxGeometry x="-120" y="-70" width="660" height="660" as="geometry" />
        </mxCell>
        <mxCell id="2c7vHbLFAKm4WHfnl5eN-7" style="edgeStyle=orthogonalEdgeStyle;rounded=0;orthogonalLoop=1;jettySize=auto;html=1;movable=1;resizable=1;rotatable=1;deletable=1;editable=1;locked=0;connectable=1;" parent="1" source="2c7vHbLFAKm4WHfnl5eN-2" edge="1">
          <mxGeometry relative="1" as="geometry">
            <mxPoint x="-50" y="230" as="targetPoint" />
          </mxGeometry>
        </mxCell>
        <mxCell id="2c7vHbLFAKm4WHfnl5eN-2" value="&lt;font style=&quot;font-size: 11px;&quot;&gt;Existing Flight&lt;/font&gt;" style="rhombus;whiteSpace=wrap;html=1;movable=1;resizable=1;rotatable=1;deletable=1;editable=1;locked=0;connectable=1;" parent="1" vertex="1">
          <mxGeometry x="-100" y="70" width="100" height="100" as="geometry" />
        </mxCell>
        <mxCell id="2c7vHbLFAKm4WHfnl5eN-3" value="" style="endArrow=classic;html=1;rounded=0;movable=1;resizable=1;rotatable=1;deletable=1;editable=1;locked=0;connectable=1;" parent="1" edge="1">
          <mxGeometry width="50" height="50" relative="1" as="geometry">
            <mxPoint y="119.5" as="sourcePoint" />
            <mxPoint x="90" y="119.5" as="targetPoint" />
          </mxGeometry>
        </mxCell>
        <mxCell id="RJwmLbTxzPgo3nEWYFK--12" style="edgeStyle=orthogonalEdgeStyle;rounded=0;orthogonalLoop=1;jettySize=auto;html=1;movable=1;resizable=1;rotatable=1;deletable=1;editable=1;locked=0;connectable=1;" edge="1" parent="1" source="2c7vHbLFAKm4WHfnl5eN-4" target="RJwmLbTxzPgo3nEWYFK--10">
          <mxGeometry relative="1" as="geometry">
            <Array as="points">
              <mxPoint x="165" y="210" />
              <mxPoint x="165" y="210" />
            </Array>
          </mxGeometry>
        </mxCell>
        <mxCell id="RJwmLbTxzPgo3nEWYFK--22" style="edgeStyle=orthogonalEdgeStyle;rounded=0;orthogonalLoop=1;jettySize=auto;html=1;exitX=0.375;exitY=1;exitDx=0;exitDy=0;entryX=1;entryY=0;entryDx=0;entryDy=0;movable=1;resizable=1;rotatable=1;deletable=1;editable=1;locked=0;connectable=1;" edge="1" parent="1" source="2c7vHbLFAKm4WHfnl5eN-4" target="2c7vHbLFAKm4WHfnl5eN-8">
          <mxGeometry relative="1" as="geometry" />
        </mxCell>
        <mxCell id="2c7vHbLFAKm4WHfnl5eN-4" value="&lt;font style=&quot;font-size: 11px;&quot;&gt;Can we accommodate the request?&lt;/font&gt;" style="shape=hexagon;perimeter=hexagonPerimeter2;whiteSpace=wrap;html=1;fixedSize=1;movable=1;resizable=1;rotatable=1;deletable=1;editable=1;locked=0;connectable=1;" parent="1" vertex="1">
          <mxGeometry x="90" y="80" width="150" height="80" as="geometry" />
        </mxCell>
        <mxCell id="2c7vHbLFAKm4WHfnl5eN-6" value="YES" style="text;html=1;strokeColor=none;fillColor=none;align=center;verticalAlign=middle;whiteSpace=wrap;rounded=0;movable=1;resizable=1;rotatable=1;deletable=1;editable=1;locked=0;connectable=1;" parent="1" vertex="1">
          <mxGeometry x="10" y="90" width="60" height="30" as="geometry" />
        </mxCell>
        <mxCell id="RJwmLbTxzPgo3nEWYFK--19" style="edgeStyle=orthogonalEdgeStyle;rounded=0;orthogonalLoop=1;jettySize=auto;html=1;exitX=0.5;exitY=1;exitDx=0;exitDy=0;entryX=0;entryY=0.5;entryDx=0;entryDy=0;movable=1;resizable=1;rotatable=1;deletable=1;editable=1;locked=0;connectable=1;" edge="1" parent="1" source="2c7vHbLFAKm4WHfnl5eN-8" target="RJwmLbTxzPgo3nEWYFK--10">
          <mxGeometry relative="1" as="geometry" />
        </mxCell>
        <mxCell id="RJwmLbTxzPgo3nEWYFK--26" style="edgeStyle=orthogonalEdgeStyle;rounded=0;orthogonalLoop=1;jettySize=auto;html=1;exitX=0.25;exitY=1;exitDx=0;exitDy=0;" edge="1" parent="1" source="2c7vHbLFAKm4WHfnl5eN-8">
          <mxGeometry relative="1" as="geometry">
            <mxPoint x="420" y="430" as="targetPoint" />
            <Array as="points">
              <mxPoint x="-80" y="510" />
              <mxPoint x="420" y="510" />
            </Array>
          </mxGeometry>
        </mxCell>
        <mxCell id="2c7vHbLFAKm4WHfnl5eN-8" value="&lt;font style=&quot;font-size: 11px;&quot;&gt;Create New Flight&lt;/font&gt;" style="shape=parallelogram;perimeter=parallelogramPerimeter;whiteSpace=wrap;html=1;fixedSize=1;movable=1;resizable=1;rotatable=1;deletable=1;editable=1;locked=0;connectable=1;" parent="1" vertex="1">
          <mxGeometry x="-110" y="230" width="120" height="60" as="geometry" />
        </mxCell>
        <mxCell id="2c7vHbLFAKm4WHfnl5eN-9" value="NO" style="text;html=1;strokeColor=none;fillColor=none;align=center;verticalAlign=middle;whiteSpace=wrap;rounded=0;movable=1;resizable=1;rotatable=1;deletable=1;editable=1;locked=0;connectable=1;" parent="1" vertex="1">
          <mxGeometry x="-60" y="190" width="60" height="30" as="geometry" />
        </mxCell>
        <mxCell id="2c7vHbLFAKm4WHfnl5eN-10" value="&lt;font style=&quot;font-size: 11px;&quot;&gt;&lt;b&gt;&lt;u&gt;Conditions to Check&lt;br&gt;&lt;/u&gt;&lt;/b&gt;&lt;br&gt;1. origin_vport == start_vport &amp;amp; destination_vport == end_vport&lt;br&gt;2. request_time - proposed_time &amp;lt;= 30 minutes&lt;br&gt;3. current_vport == destination_vport&lt;br&gt;4. seating capacity &amp;lt;= 5&lt;br&gt;5. request_time &amp;gt;= shift_start_time &amp;amp; request_time &amp;lt;= shift_end_time&lt;br&gt;&lt;/font&gt;" style="whiteSpace=wrap;html=1;aspect=fixed;movable=1;resizable=1;rotatable=1;deletable=1;editable=1;locked=0;connectable=1;" parent="1" vertex="1">
          <mxGeometry x="320" y="30" width="200" height="200" as="geometry" />
        </mxCell>
        <mxCell id="RJwmLbTxzPgo3nEWYFK--2" value="" style="endArrow=classic;html=1;rounded=0;entryX=-0.008;entryY=0.453;entryDx=0;entryDy=0;entryPerimeter=0;movable=1;resizable=1;rotatable=1;deletable=1;editable=1;locked=0;connectable=1;" edge="1" parent="1" target="2c7vHbLFAKm4WHfnl5eN-10">
          <mxGeometry relative="1" as="geometry">
            <mxPoint x="240" y="120" as="sourcePoint" />
            <mxPoint x="300" y="120" as="targetPoint" />
          </mxGeometry>
        </mxCell>
        <mxCell id="RJwmLbTxzPgo3nEWYFK--3" value="" style="shape=message;html=1;outlineConnect=0;movable=1;resizable=1;rotatable=1;deletable=1;editable=1;locked=0;connectable=1;" vertex="1" parent="RJwmLbTxzPgo3nEWYFK--2">
          <mxGeometry width="20" height="14" relative="1" as="geometry">
            <mxPoint x="-10" y="-7" as="offset" />
          </mxGeometry>
        </mxCell>
        <mxCell id="RJwmLbTxzPgo3nEWYFK--6" value="" style="endArrow=classic;html=1;rounded=0;entryX=0;entryY=0.288;entryDx=0;entryDy=0;entryPerimeter=0;movable=1;resizable=1;rotatable=1;deletable=1;editable=1;locked=0;connectable=1;" edge="1" parent="1" target="RJwmLbTxzPgo3nEWYFK--1">
          <mxGeometry width="50" height="50" relative="1" as="geometry">
            <mxPoint x="-170" y="120" as="sourcePoint" />
            <mxPoint x="-120" y="70" as="targetPoint" />
          </mxGeometry>
        </mxCell>
        <mxCell id="RJwmLbTxzPgo3nEWYFK--7" value="" style="endArrow=classic;html=1;rounded=0;entryX=0;entryY=0.288;entryDx=0;entryDy=0;entryPerimeter=0;movable=1;resizable=1;rotatable=1;deletable=1;editable=1;locked=0;connectable=1;" edge="1" parent="1">
          <mxGeometry width="50" height="50" relative="1" as="geometry">
            <mxPoint x="-170" y="190" as="sourcePoint" />
            <mxPoint x="-120" y="190" as="targetPoint" />
          </mxGeometry>
        </mxCell>
        <mxCell id="RJwmLbTxzPgo3nEWYFK--8" value="" style="endArrow=classic;html=1;rounded=0;entryX=0;entryY=0.288;entryDx=0;entryDy=0;entryPerimeter=0;movable=1;resizable=1;rotatable=1;deletable=1;editable=1;locked=0;connectable=1;" edge="1" parent="1">
          <mxGeometry width="50" height="50" relative="1" as="geometry">
            <mxPoint x="-170" y="39.58000000000001" as="sourcePoint" />
            <mxPoint x="-120" y="39.58000000000001" as="targetPoint" />
          </mxGeometry>
        </mxCell>
        <mxCell id="RJwmLbTxzPgo3nEWYFK--25" value="" style="edgeStyle=orthogonalEdgeStyle;rounded=0;orthogonalLoop=1;jettySize=auto;html=1;movable=1;resizable=1;rotatable=1;deletable=1;editable=1;locked=0;connectable=1;" edge="1" parent="1" source="RJwmLbTxzPgo3nEWYFK--10" target="RJwmLbTxzPgo3nEWYFK--24">
          <mxGeometry relative="1" as="geometry" />
        </mxCell>
        <mxCell id="RJwmLbTxzPgo3nEWYFK--10" value="Feasible Options &amp;amp; Evaluation&lt;br&gt;1. Gather options that fulfill a rider request&lt;br&gt;2. Utility score computation to evaluate options&lt;br&gt;3.&amp;nbsp;" style="ellipse;whiteSpace=wrap;html=1;aspect=fixed;movable=1;resizable=1;rotatable=1;deletable=1;editable=1;locked=0;connectable=1;" vertex="1" parent="1">
          <mxGeometry x="60" y="290" width="210" height="210" as="geometry" />
        </mxCell>
        <mxCell id="RJwmLbTxzPgo3nEWYFK--13" value="YES" style="text;html=1;strokeColor=none;fillColor=none;align=center;verticalAlign=middle;whiteSpace=wrap;rounded=0;movable=1;resizable=1;rotatable=1;deletable=1;editable=1;locked=0;connectable=1;" vertex="1" parent="1">
          <mxGeometry x="153" y="230" width="60" height="30" as="geometry" />
        </mxCell>
        <mxCell id="RJwmLbTxzPgo3nEWYFK--15" value="&lt;b&gt;&lt;i&gt;Request Loop&lt;/i&gt;&lt;/b&gt;" style="text;html=1;strokeColor=none;fillColor=none;align=center;verticalAlign=middle;whiteSpace=wrap;rounded=0;movable=1;resizable=1;rotatable=1;deletable=1;editable=1;locked=0;connectable=1;" vertex="1" parent="1">
          <mxGeometry x="135" y="610" width="60" height="30" as="geometry" />
        </mxCell>
        <mxCell id="RJwmLbTxzPgo3nEWYFK--16" value="&lt;b&gt;&lt;i&gt;Request Loop&lt;/i&gt;&lt;/b&gt;" style="text;html=1;strokeColor=none;fillColor=none;align=center;verticalAlign=middle;whiteSpace=wrap;rounded=0;movable=1;resizable=1;rotatable=1;deletable=1;editable=1;locked=0;connectable=1;" vertex="1" parent="1">
          <mxGeometry x="135" y="-110" width="60" height="30" as="geometry" />
        </mxCell>
        <mxCell id="RJwmLbTxzPgo3nEWYFK--17" value="&lt;b&gt;&lt;i&gt;Request Loop&lt;/i&gt;&lt;/b&gt;" style="text;html=1;strokeColor=none;fillColor=none;align=center;verticalAlign=middle;whiteSpace=wrap;rounded=0;movable=1;resizable=1;rotatable=1;deletable=1;editable=1;locked=0;connectable=1;" vertex="1" parent="1">
          <mxGeometry x="550" y="230" width="60" height="30" as="geometry" />
        </mxCell>
        <mxCell id="RJwmLbTxzPgo3nEWYFK--18" value="&lt;b&gt;&lt;i&gt;Request Loop&lt;/i&gt;&lt;/b&gt;" style="text;html=1;strokeColor=none;fillColor=none;align=center;verticalAlign=middle;whiteSpace=wrap;rounded=0;movable=1;resizable=1;rotatable=1;deletable=1;editable=1;locked=0;connectable=1;" vertex="1" parent="1">
          <mxGeometry x="-193" y="300" width="60" height="30" as="geometry" />
        </mxCell>
        <mxCell id="RJwmLbTxzPgo3nEWYFK--20" value="YES" style="text;html=1;strokeColor=none;fillColor=none;align=center;verticalAlign=middle;whiteSpace=wrap;rounded=0;movable=1;resizable=1;rotatable=1;deletable=1;editable=1;locked=0;connectable=1;" vertex="1" parent="1">
          <mxGeometry x="-40" y="370" width="60" height="30" as="geometry" />
        </mxCell>
        <mxCell id="RJwmLbTxzPgo3nEWYFK--23" value="NO" style="text;html=1;strokeColor=none;fillColor=none;align=center;verticalAlign=middle;whiteSpace=wrap;rounded=0;movable=1;resizable=1;rotatable=1;deletable=1;editable=1;locked=0;connectable=1;" vertex="1" parent="1">
          <mxGeometry x="20" y="170" width="60" height="30" as="geometry" />
        </mxCell>
        <mxCell id="RJwmLbTxzPgo3nEWYFK--29" value="" style="edgeStyle=orthogonalEdgeStyle;rounded=0;orthogonalLoop=1;jettySize=auto;html=1;" edge="1" parent="1" source="RJwmLbTxzPgo3nEWYFK--24">
          <mxGeometry relative="1" as="geometry">
            <mxPoint x="630" y="395" as="targetPoint" />
          </mxGeometry>
        </mxCell>
        <mxCell id="RJwmLbTxzPgo3nEWYFK--24" value="Output with fulfilled and unfulfilled&amp;nbsp; requests" style="shape=document;whiteSpace=wrap;html=1;boundedLbl=1;movable=1;resizable=1;rotatable=1;deletable=1;editable=1;locked=0;connectable=1;" vertex="1" parent="1">
          <mxGeometry x="320" y="352.5" width="200" height="85" as="geometry" />
        </mxCell>
        <mxCell id="RJwmLbTxzPgo3nEWYFK--27" value="NO" style="text;html=1;strokeColor=none;fillColor=none;align=center;verticalAlign=middle;whiteSpace=wrap;rounded=0;movable=1;resizable=1;rotatable=1;deletable=1;editable=1;locked=0;connectable=1;" vertex="1" parent="1">
          <mxGeometry y="480" width="60" height="30" as="geometry" />
        </mxCell>
        <mxCell id="RJwmLbTxzPgo3nEWYFK--30" value="Booking Service" style="shape=step;perimeter=stepPerimeter;whiteSpace=wrap;html=1;fixedSize=1;" vertex="1" parent="1">
          <mxGeometry x="610" y="355" width="140" height="80" as="geometry" />
        </mxCell>
        <mxCell id="RJwmLbTxzPgo3nEWYFK--34" value="" style="group" vertex="1" connectable="0" parent="1">
          <mxGeometry x="-290" y="20" width="120" height="180" as="geometry" />
        </mxCell>
        <mxCell id="2CazSDJXNRBl0PBJnTE1-1" value="Sub-Shifts" style="rounded=0;whiteSpace=wrap;html=1;movable=1;resizable=1;rotatable=1;deletable=1;editable=1;locked=0;connectable=1;" parent="RJwmLbTxzPgo3nEWYFK--34" vertex="1">
          <mxGeometry width="120" height="40" as="geometry" />
        </mxCell>
        <mxCell id="2CazSDJXNRBl0PBJnTE1-3" value="Vertiports" style="rounded=0;whiteSpace=wrap;html=1;movable=1;resizable=1;rotatable=1;deletable=1;editable=1;locked=0;connectable=1;" parent="RJwmLbTxzPgo3nEWYFK--34" vertex="1">
          <mxGeometry y="70" width="120" height="40" as="geometry" />
        </mxCell>
        <mxCell id="2CazSDJXNRBl0PBJnTE1-4" value="Rider Request" style="rounded=0;whiteSpace=wrap;html=1;movable=1;resizable=1;rotatable=1;deletable=1;editable=1;locked=0;connectable=1;" parent="RJwmLbTxzPgo3nEWYFK--34" vertex="1">
          <mxGeometry y="140" width="120" height="40" as="geometry" />
        </mxCell>
        <mxCell id="RJwmLbTxzPgo3nEWYFK--35" value="" style="rounded=0;whiteSpace=wrap;html=1;fillColor=none;dashed=1;dashPattern=12 12;fontColor=#ffffff;strokeColor=#001DBC;strokeWidth=2;" vertex="1" parent="1">
          <mxGeometry x="-320" width="180" height="240" as="geometry" />
        </mxCell>
        <mxCell id="RJwmLbTxzPgo3nEWYFK--37" value="&lt;b&gt;&lt;i&gt;Booking Service&lt;/i&gt;&lt;/b&gt;" style="text;html=1;strokeColor=none;fillColor=none;align=center;verticalAlign=middle;whiteSpace=wrap;rounded=0;movable=1;resizable=1;rotatable=1;deletable=1;editable=1;locked=0;connectable=1;" vertex="1" parent="1">
          <mxGeometry x="-260" y="245" width="60" height="30" as="geometry" />
        </mxCell>
        <mxCell id="RJwmLbTxzPgo3nEWYFK--39" value="&lt;b&gt;&lt;i&gt;Booking Service&lt;/i&gt;&lt;/b&gt;" style="text;html=1;strokeColor=none;fillColor=none;align=center;verticalAlign=middle;whiteSpace=wrap;rounded=0;movable=1;resizable=1;rotatable=1;deletable=1;editable=1;locked=0;connectable=1;" vertex="1" parent="1">
          <mxGeometry x="-260" y="-30" width="60" height="30" as="geometry" />
        </mxCell>
        <mxCell id="RJwmLbTxzPgo3nEWYFK--40" value="&lt;b&gt;&lt;i&gt;Booking Service&lt;/i&gt;&lt;/b&gt;" style="text;html=1;strokeColor=none;fillColor=none;align=center;verticalAlign=middle;whiteSpace=wrap;rounded=0;movable=1;resizable=1;rotatable=1;deletable=1;editable=1;locked=0;connectable=1;" vertex="1" parent="1">
          <mxGeometry x="-390" y="90" width="60" height="30" as="geometry" />
        </mxCell>
      </root>
    </mxGraphModel>
  </diagram>
</mxfile>
